<svg xmlns="http://www.w3.org/2000/svg" viewBox="0 0 64 64" fill="none">
  <!-- Centaur silhouette - stylized, minimal -->
  <defs>
    <linearGradient id="g" x1="0" y1="0" x2="1" y2="1">
      <stop offset="0%" stop-color="#0ea5e9"/>
      <stop offset="100%" stop-color="#0369a1"/>
    </linearGradient>
  </defs>
  <!-- Horse body -->
  <path d="M16 44 C16 38 20 34 26 34 L38 34 C44 34 48 38 48 44 L48 48 C48 52 44 52 42 48 L40 44 L38 48 C36 52 32 52 30 48 L28 44 L26 48 C24 52 20 52 18 48 L16 44Z" fill="url(#g)"/>
  <!-- Human torso rising from horse -->
  <path d="M30 34 L30 20 C30 16 32 14 34 14 L34 14 C36 14 38 16 38 20 L38 34" fill="url(#g)"/>
  <!-- Head -->
  <circle cx="34" cy="11" r="5" fill="url(#g)"/>
  <!-- Arm extended forward (reaching/commanding) -->
  <path d="M36 20 L46 16 L48 14" stroke="url(#g)" stroke-width="2.5" stroke-linecap="round" fill="none"/>
  <!-- Tail -->
  <path d="M16 38 C12 36 10 32 12 28" stroke="url(#g)" stroke-width="2" stroke-linecap="round" fill="none"/>
</svg>
